<svg id="visual" viewBox="0 0 900 600" width="900" height="600" xmlns="http://www.w3.org/2000/svg" xmlns:xlink="http://www.w3.org/1999/xlink" version="1.1"><rect x="0" y="0" width="900" height="600" fill="#ffffff"></rect><path d="M0 574L15 565.8C30 557.7 60 541.3 90 527.3C120 513.3 150 501.7 180 494.7C210 487.7 240 485.3 270 467.8C300 450.3 330 417.7 360 432.8C390 448 420 511 450 515.5C480 520 510 466 540 462C570 458 600 504 630 515.2C660 526.3 690 502.7 720 497.7C750 492.7 780 506.3 810 513.7C840 521 870 522 885 522.5L900 523" fill="none" stroke-linecap="round" stroke-linejoin="miter" stroke="#0066FF" stroke-width="40"></path></svg>